<svg width="360" height="68" viewBox="0 0 360 68" fill="none" xmlns="http://www.w3.org/2000/svg">
<path d="M15.4246 56.7528C11.0689 56.7528 7.42259 55.5752 4.49551 53.2301C1.48851 50.8749 0 47.5717 0 43.3005V23.9404C0 19.769 1.48851 16.4658 4.49551 14.0906C7.57244 11.7056 11.2088 10.498 15.4246 10.498C19.6404 10.498 23.1269 11.7056 26.2138 14.0906C29.2508 16.4258 30.7793 19.729 30.7793 23.9404V25.0481H19.2208V20.0883C19.2208 19.0205 18.8512 18.1024 18.1019 17.3539C17.3327 16.5955 16.4436 16.2163 15.4246 16.2163C14.3257 16.2163 13.4166 16.5955 12.6673 17.3539C11.9281 18.1024 11.5385 19.0205 11.5385 20.0883V47.1626C11.5385 48.2004 11.9281 49.0986 12.6673 49.847C13.4166 50.5955 14.3257 50.9647 15.4246 50.9647C16.4436 50.9647 17.3327 50.5855 18.1019 49.847C18.8512 49.0986 19.2208 48.2004 19.2208 47.1626V41.3346H30.7793V43.3005C30.7793 47.5717 29.2608 50.8749 26.2138 53.2301C23.2967 55.5752 19.6703 56.7528 15.4246 56.7528Z" fill="#231F20"/>
<path d="M51.9973 10.5082C56.1232 10.5082 59.7296 11.7157 62.8065 14.1008C65.8535 16.436 67.3719 19.7392 67.3719 23.9505V55.4257H55.8135V20.0884C55.8135 19.0206 55.4339 18.1025 54.6846 17.3541C53.9354 16.5956 53.0263 16.2164 51.9873 16.2164C50.9484 16.2164 49.9993 16.5956 49.2401 17.3541C48.4908 18.1025 48.1112 19.0206 48.1112 20.0884V55.4157H36.5527V0.339111H48.1112V10.9074C48.7306 10.7577 49.3699 10.6479 50.0293 10.598C50.6786 10.5381 51.338 10.4982 51.9773 10.4982L51.9973 10.5082Z" fill="#231F20"/>
<path d="M88.8899 56.7527C84.5143 56.7527 80.8979 55.5752 77.9508 53.23C74.9538 50.8748 73.4453 47.5716 73.4453 43.3004V11.8352H85.0238V46.5837C85.0238 47.6215 85.3834 48.5097 86.1227 49.2582C86.8819 50.0166 87.801 50.3958 88.8899 50.3958C89.9788 50.3958 90.818 50.0166 91.5672 49.2582C92.3165 48.5097 92.6961 47.6215 92.6961 46.5837V11.8352H104.245V43.3004C104.245 47.5716 102.726 50.8748 99.6791 53.23C96.742 55.5752 93.1456 56.7527 88.8799 56.7527H88.8899Z" fill="#231F20"/>
<path d="M142.759 55.4158H131.18V20.5476C131.18 19.5097 130.811 18.6216 130.071 17.8631C129.322 17.1047 128.413 16.7255 127.374 16.7255C126.335 16.7255 125.386 17.1047 124.627 17.8631C123.878 18.6116 123.498 19.4998 123.498 20.5476V55.4158H111.939V23.9406C111.939 19.7692 113.458 16.466 116.455 14.0909C119.542 11.7058 123.178 10.4983 127.374 10.4983C131.57 10.4983 135.096 11.7058 138.183 14.0909C141.22 16.4261 142.759 19.7293 142.759 23.9406V55.4158Z" fill="#231F20"/>
<path d="M170.249 67.9996H163.026C163.895 65.4748 164.675 62.9101 165.334 60.3853C165.983 57.8405 166.503 55.2559 166.882 52.5814L163.825 52.8708C159.47 52.8708 155.833 51.7032 152.896 49.348C149.909 47.0029 148.391 43.6797 148.391 39.4185V23.9304C148.391 19.7589 149.899 16.4558 152.896 14.0806C156.003 11.6956 159.62 10.488 163.825 10.488C168.031 10.488 171.568 11.6956 174.635 14.0806C177.692 16.4158 179.21 19.719 179.21 23.9304V41.3246C179.21 46.3542 178.261 51.0545 176.373 55.4056C175.454 57.7108 174.485 59.8863 173.456 61.9321C172.437 63.9779 171.368 65.9938 170.249 67.9896V67.9996ZM167.642 43.8194C167.712 39.8576 167.731 35.8957 167.712 31.9538C167.652 28.012 167.642 24.0601 167.642 20.0883C167.642 19.0205 167.272 18.1024 166.513 17.3539C165.763 16.5955 164.854 16.2162 163.825 16.2162C162.796 16.2162 161.847 16.5955 161.098 17.3539C160.329 18.1024 159.959 19.0205 159.959 20.0883V43.3005C159.959 44.3583 160.329 45.2864 161.098 46.0349C161.847 46.7933 162.756 47.1625 163.825 47.1625C166.023 47.1625 167.302 46.0349 167.642 43.8194Z" fill="#231F20"/>
<path d="M199.391 56.7531C195.036 56.7531 191.399 55.5755 188.472 53.2303C185.465 50.8752 183.967 47.572 183.967 43.3107V23.9406C183.967 19.7692 185.465 16.466 188.472 14.0909C191.549 11.7058 195.195 10.4983 199.391 10.4983C203.587 10.4983 207.123 11.7058 210.2 14.0909C213.237 16.4261 214.766 19.7293 214.766 23.9406V24.5294H203.197V20.0885C203.197 19.0207 202.818 18.1026 202.079 17.3542C201.319 16.5957 200.42 16.2165 199.381 16.2165C198.342 16.2165 197.383 16.5957 196.634 17.3542C195.885 18.1026 195.505 19.0207 195.505 20.0885V47.1628C195.505 48.1607 195.875 49.0489 196.604 49.8173C197.353 50.5858 198.262 50.965 199.371 50.965C200.41 50.965 201.309 50.5858 202.069 49.8473C202.808 49.0988 203.187 48.2106 203.187 47.1628V42.3128H214.756V43.3008C214.756 47.562 213.227 50.8652 210.19 53.2203C207.263 55.5655 203.657 56.7431 199.381 56.7431L199.391 56.7531Z" fill="#231F20"/>
<path d="M235.924 10.5084C240.06 10.5084 243.657 11.7159 246.734 14.101C249.771 16.4362 251.299 19.7394 251.299 23.9507V55.4259H239.741V20.0887C239.741 19.0209 239.371 18.1028 238.622 17.3543C237.862 16.5959 236.963 16.2167 235.914 16.2167C234.865 16.2167 233.926 16.5959 233.187 17.3543C232.428 18.1028 232.058 19.0209 232.058 20.0887V55.416H220.5V0.339355H232.058V10.9076C232.678 10.7579 233.307 10.6481 233.966 10.5982C234.596 10.5384 235.255 10.4984 235.914 10.4984L235.924 10.5084Z" fill="#231F20"/>
<path d="M277.373 67.9998H270.15C271.039 65.475 271.809 62.9303 272.458 60.4154C273.117 57.8906 273.637 55.306 274.016 52.6414C273.477 52.7313 272.958 52.7811 272.458 52.8111C271.969 52.851 271.469 52.871 270.96 52.871C266.614 52.871 262.978 51.6934 260.03 49.3482C257.043 46.9931 255.535 43.6799 255.535 39.4187V11.8354H267.103V43.3106C267.103 44.3685 267.473 45.2966 268.232 46.035C268.982 46.7935 269.901 47.1627 270.97 47.1627C273.167 47.1627 274.436 46.035 274.796 43.8196V11.8354H286.354V41.3347C286.354 46.3644 285.395 51.0647 283.507 55.4157C282.588 57.721 281.619 59.8965 280.59 61.9423C279.561 63.9881 278.502 66.0039 277.383 67.9998H277.373Z" fill="#231F20"/>
<path d="M322.287 30.2575C321.228 30.2575 320.399 30.6567 319.8 31.4451C319.19 32.2235 318.881 33.2214 318.881 34.399C318.881 35.5766 319.19 36.5546 319.84 37.333C320.469 38.1014 321.268 38.4806 322.217 38.4806C323.166 38.4806 324.006 38.1014 324.665 37.323C325.324 36.5446 325.644 35.5566 325.644 34.3192C325.644 33.2115 325.344 32.2534 324.745 31.4551C324.136 30.6567 323.326 30.2476 322.297 30.2476L322.287 30.2575Z" fill="#4155A4"/>
<path d="M326.773 0C308.432 0 293.556 14.8694 293.556 33.1817C293.556 51.494 308.432 66.3634 326.773 66.3634C345.115 66.3634 360 51.5139 360 33.1817C360 14.8494 345.125 0 326.773 0ZM309.69 37.2832C310.42 37.9918 311.329 38.3411 312.448 38.3411C313.317 38.3411 314.166 38.1714 314.975 37.8122L315.315 39.3789C314.396 39.818 313.317 40.0276 312.068 40.0276C310.41 40.0276 309.051 39.5087 308.022 38.4908C306.993 37.4729 306.484 36.1356 306.484 34.509C306.484 32.7925 307.033 31.3954 308.142 30.3375C309.251 29.2398 310.719 28.7109 312.498 28.7109C313.586 28.7109 314.545 28.9005 315.355 29.3097L314.915 30.9064C314.226 30.5471 313.447 30.3675 312.518 30.3675C311.329 30.3675 310.38 30.7467 309.68 31.5051C308.971 32.2536 308.611 33.2116 308.611 34.3692C308.611 35.5867 308.971 36.5647 309.69 37.2832ZM327.073 37.3132C326.593 38.1914 325.914 38.86 325.045 39.329C324.156 39.7981 323.207 40.0376 322.198 40.0376C320.619 40.0376 319.321 39.5186 318.292 38.4808C317.263 37.4429 316.743 36.1057 316.743 34.469C316.743 32.7226 317.283 31.3155 318.342 30.2777C319.401 29.2398 320.749 28.7209 322.358 28.7209C323.966 28.7209 325.285 29.2398 326.284 30.2477C327.303 31.2956 327.802 32.6228 327.802 34.2495C327.802 35.4071 327.553 36.425 327.073 37.3032V37.3132ZM346.763 39.4288H344.765V33.7405C344.765 32.6827 344.326 31.8444 343.916 31.2756C343.517 30.6968 342.797 30.4174 342.028 30.4174C341.359 30.4174 340.919 30.6768 340.41 31.1658C339.9 31.6848 339.78 32.3434 339.78 33.1318V39.4188H337.782V33.3813C337.782 32.4632 337.343 31.7446 336.933 31.2058C336.524 30.6768 335.854 30.4174 335.135 30.4174C334.416 30.4174 333.986 30.6968 333.457 31.2756C332.927 31.8644 332.797 32.543 332.797 33.3114V39.4188H330.799V31.9343C330.799 30.7267 330.32 29.4394 330.26 29.4394H332.078L332.228 30.9662C333.037 29.629 334.216 28.8406 335.764 28.8406C336.474 28.8406 337.093 28.9704 337.672 29.3596C338.222 29.7488 338.651 30.2677 338.941 30.9463C339.83 29.4893 341.069 28.7408 342.657 28.7408C343.736 28.7408 344.845 29.14 345.545 29.9583C346.224 30.7667 346.783 31.9442 346.783 33.511V39.4288H346.763Z" fill="#4155A4"/>
</svg>
