<svg width="171" height="69" viewBox="0 0 171 69" fill="none" xmlns="http://www.w3.org/2000/svg">
<path d="M111.387 8.05358C111.801 9.4036 112.215 10.6776 112.623 11.8757L110.35 12.6589C109.947 11.3848 109.539 10.0289 109.125 8.60878C107.761 7.7263 106.251 6.72693 104.589 5.61068C103.645 4.96197 103.359 4.34832 103.75 3.75805C104.199 3.07427 104.91 3.07427 105.872 3.76389C107.166 4.69897 108.385 5.55808 109.528 6.34705C110.006 4.72819 110.425 3.31388 110.793 2.09828C111.131 0.970338 111.708 0.532018 112.536 0.777477C113.096 0.941116 113.23 1.50217 112.944 2.44893C112.361 4.39507 111.836 6.26523 111.382 8.04773" fill="#3B3983"/>
<path d="M113.586 6.89643C113.673 5.85616 114.099 5.00874 114.857 4.34834C115.615 3.68794 116.547 3.40741 117.667 3.50092C118.757 3.60027 119.608 4.00353 120.215 4.72821C120.827 5.44706 121.083 6.32954 120.996 7.37566C120.908 8.37503 120.494 9.19907 119.748 9.85363C119.002 10.5023 118.034 10.777 116.845 10.6777C115.924 10.5958 115.125 10.2277 114.448 9.5731C113.778 8.91855 113.492 8.03022 113.586 6.90812M115.562 7.00747C115.51 7.59774 115.661 8.06529 116.005 8.40425C116.349 8.73737 116.716 8.93024 117.113 8.9653C117.573 8.98283 117.987 8.83673 118.366 8.51529C118.745 8.1997 118.955 7.77892 119.002 7.25878C119.054 6.64513 118.914 6.17759 118.576 5.83862C118.244 5.51134 117.865 5.32433 117.451 5.28342C117.06 5.24835 116.658 5.37693 116.25 5.66914C115.842 5.96135 115.615 6.39967 115.562 7.00747Z" fill="#3B3983"/>
<path d="M122.261 2.88138C122.331 2.30864 122.693 2.06903 123.357 2.15085C124.074 2.23851 124.413 2.52488 124.354 2.99827L124.022 5.71585C123.952 6.30612 123.999 6.73859 124.162 7.01327C124.325 7.2938 124.57 7.45744 124.885 7.50419C125.287 7.56263 125.631 7.48081 125.923 7.26458C126.214 7.04249 126.389 6.66846 126.447 6.14248L126.756 3.6762C126.826 2.98073 127.24 2.68268 127.981 2.78787C128.669 2.86969 128.978 3.24957 128.896 3.90997C128.505 6.75028 128.266 8.71395 128.185 9.81267L126.127 9.55552L126.197 8.98279C125.783 9.29838 125.089 9.39773 124.115 9.28084C123.369 9.18734 122.786 8.80162 122.36 8.11784C121.929 7.43406 121.801 6.49898 121.964 5.32428L122.261 2.88723V2.88138Z" fill="#3B3983"/>
<path d="M135.864 11.788L133.992 11.1802L134.972 8.16457C135.112 7.73794 135.164 7.35807 135.129 7.0191C135.094 6.68598 134.942 6.44052 134.68 6.28857C134.173 6.02558 133.712 5.97882 133.304 6.14246C132.896 6.31194 132.634 6.56325 132.529 6.90221L131.386 10.3562L129.485 9.74252L131.334 4.03268C131.526 3.43073 131.963 3.24371 132.634 3.46579C133.065 3.60605 133.228 3.97424 133.118 4.55867C134.109 4.1671 135.135 4.30736 136.196 4.97361C136.546 5.20738 136.837 5.57557 137.065 6.06649C137.292 6.5574 137.28 7.25871 137.03 8.17626L135.858 11.788H135.864Z" fill="#3B3983"/>
<path d="M145.729 8.06533C146.265 8.36339 146.341 8.84847 145.962 9.51471C144.866 11.4082 144.02 12.8927 143.408 13.968C143 14.7161 142.452 15.2655 141.77 15.6278C141.088 15.9901 140.272 16.0018 139.321 15.6629C138.19 15.172 137.333 14.5817 136.768 13.8862L137.893 12.4368C138.365 13.0856 138.925 13.5648 139.566 13.8862C139.957 14.0674 140.336 14.1317 140.715 14.0791C141.094 14.0265 141.385 13.8219 141.589 13.4596L141.817 13.0505C141.169 13.0622 140.569 12.9102 140.027 12.6063C139.146 12.1212 138.569 11.4492 138.318 10.6134C138.062 9.7777 138.138 8.98288 138.552 8.24651C139.024 7.3874 139.729 6.82635 140.668 6.56336C141.607 6.29452 142.51 6.40557 143.385 6.89064C143.898 7.17701 144.3 7.55104 144.592 8.02442C144.843 7.76728 145.221 7.78481 145.729 8.06533ZM143.041 10.666C143.315 10.1751 143.362 9.7251 143.198 9.32185C143.029 8.9186 142.767 8.61469 142.4 8.41015C142.056 8.22313 141.665 8.18222 141.222 8.2991C140.785 8.41015 140.464 8.64976 140.266 9.01795C140.033 9.43289 139.998 9.84783 140.161 10.2394C140.318 10.6427 140.551 10.9232 140.849 11.0868C141.304 11.3381 141.741 11.4082 142.161 11.2972C142.58 11.1862 142.878 10.9699 143.047 10.6602" fill="#3B3983"/>
<path d="M59.8519 8.11186C59.368 7.08911 59.4438 6.42287 60.091 6.10728C60.878 5.75078 61.4961 6.04883 61.9275 7.01898L64.487 12.7522L65.8979 8.26381C66.0262 7.86055 66.2244 7.63847 66.4809 7.60341C66.7433 7.56834 66.9998 7.73198 67.2447 8.09432L69.9091 11.8989L71.1277 5.79753C71.3434 4.79232 71.8156 4.34816 72.5328 4.46504C73.279 4.59361 73.5414 5.20726 73.3082 6.30598L71.3434 15.9315L70.2006 16.0951L67.1339 11.8405L65.5364 16.8256L64.0439 17.036L59.8461 8.1177L59.8519 8.11186Z" fill="#3B3983"/>
<path d="M73.9848 11.6012C73.8565 10.5668 74.0956 9.64926 74.6961 8.84859C75.3024 8.04208 76.1595 7.5687 77.2789 7.43428C78.3633 7.30571 79.2787 7.52195 80.025 8.10053C80.7712 8.67326 81.2085 9.47977 81.3368 10.5317C81.4592 11.5194 81.2202 12.4194 80.6313 13.2084C80.0366 14.0032 79.1446 14.4708 77.9552 14.6169C77.0399 14.7279 76.1828 14.5351 75.3899 14.0324C74.5911 13.5357 74.1247 12.7233 73.9906 11.6071M75.9496 11.2915C76.0196 11.8818 76.2644 12.3084 76.6725 12.5655C77.0807 12.8285 77.4771 12.9279 77.8736 12.8811C78.3225 12.8052 78.7073 12.5714 79.0105 12.1798C79.3137 11.7883 79.4361 11.3382 79.3661 10.824C79.2903 10.2103 79.0571 9.77783 78.6548 9.52068C78.2584 9.26353 77.8503 9.16418 77.4421 9.21678C77.0515 9.26353 76.6842 9.46808 76.3461 9.83627C76.0079 10.1986 75.8738 10.6837 75.9496 11.2856" fill="#3B3983"/>
<path d="M82.2933 12.4311C82.1534 11.274 82.4157 10.2512 83.092 9.34536C83.7625 8.45119 84.7245 7.91936 85.9722 7.76741C87.1849 7.62131 88.211 7.86677 89.0447 8.50963C89.8785 9.1525 90.3624 10.0584 90.5081 11.2214C90.6422 12.3318 90.3799 13.3311 89.7152 14.2136C89.0506 15.102 88.0536 15.6279 86.7243 15.7916C85.6982 15.9143 84.742 15.6981 83.85 15.1429C82.9579 14.5818 82.439 13.6818 82.2874 12.4311M84.4738 12.0746C84.5554 12.735 84.8236 13.2084 85.2784 13.4948C85.739 13.787 86.1879 13.9039 86.6252 13.8513C87.1266 13.7695 87.5522 13.5065 87.8903 13.0682C88.2285 12.6298 88.3626 12.1272 88.2926 11.5486C88.211 10.8649 87.9428 10.3798 87.4997 10.0934C87.0508 9.80706 86.6019 9.69602 86.1413 9.74862C85.6982 9.80121 85.2959 10.035 84.9169 10.4441C84.5379 10.8532 84.3922 11.3967 84.4738 12.0629" fill="#3B3983"/>
<path d="M95.4232 15.4817L93.5459 14.4998L97.8545 5.49384C98.0702 5.03798 98.3734 4.81006 98.7465 4.81006C99.2071 4.81006 99.5453 5.03798 99.7551 5.49384L104.07 14.4005L102.169 15.4758L100.898 12.7933L96.6068 13.0563L95.4291 15.4758L95.4232 15.4817ZM97.4114 11.1102L100.058 10.9641L98.8048 8.11791L97.4172 11.116L97.4114 11.1102Z" fill="#3B3983"/>
<path d="M11.2319 12.5713L10.1358 16.2943C9.76262 17.3229 9.19123 17.8021 8.42744 17.7437C7.66948 17.6794 7.1389 17.3696 6.84738 16.8027L5.15654 12.5596L1.69323 12.2323C1.02856 12.244 0.521304 11.981 0.183136 11.4492C-0.160863 10.9173 -0.0209311 10.2569 0.608761 9.46207L3.37824 6.60997L3.26746 2.49546C3.07506 1.7649 3.21499 1.2915 3.66393 1.06357C4.12454 0.841477 4.67261 0.940833 5.31396 1.35579L8.66649 3.50071L12.0773 1.9753C12.7012 1.63633 13.2434 1.67724 13.7157 2.09804C14.1821 2.51884 14.3745 3.09744 14.2929 3.828L13.2201 6.9957L16.1936 9.95885C16.6601 10.4498 16.7709 10.9699 16.5201 11.5252C16.2694 12.0804 15.6981 12.3259 14.806 12.2674L11.2319 12.5596V12.5713Z" fill="#F0D439"/>
<path d="M12.6141 32.3837L11.0924 33.6285C10.6434 33.9441 10.2645 33.985 9.9613 33.7396C9.66396 33.4941 9.52986 33.2078 9.57067 32.8922L10.0837 30.6304L8.73694 29.4967C8.45126 29.3038 8.31716 29.0466 8.32882 28.7311C8.34048 28.4096 8.58536 28.1758 9.0751 28.0297L11.0516 27.6382L12.1826 25.8907C12.3109 25.5342 12.5091 25.3765 12.7598 25.4115C13.0164 25.4524 13.2146 25.6453 13.3603 26.0076L14.1474 27.8778L16.0073 28.2226C16.3571 28.2635 16.5787 28.4388 16.6545 28.7486C16.7302 29.0642 16.6428 29.3564 16.3979 29.6428L15.0453 30.6597L15.4359 32.7519C15.4884 33.0909 15.3893 33.3363 15.1211 33.5C14.8587 33.6578 14.5497 33.5993 14.1941 33.313L12.6141 32.4071V32.3837Z" fill="#F0D439"/>
<path d="M163.454 32.4189L161.53 31.2676C161.011 30.9052 160.824 30.5195 160.97 30.0987C161.116 29.6779 161.36 29.4266 161.722 29.339L164.34 29L165.022 27.1006C165.115 26.7207 165.337 26.4753 165.681 26.3642C166.025 26.2474 166.374 26.4168 166.73 26.8902L167.931 28.8597L170.246 29.3857C170.683 29.3857 170.928 29.5318 170.986 29.8182C171.045 30.1046 170.91 30.3968 170.584 30.7007L168.899 32.2786L169.266 34.4176C169.365 34.815 169.266 35.1189 168.957 35.3176C168.654 35.5222 168.304 35.5456 167.908 35.3936L166.287 34.3358L164.2 35.5806C163.862 35.7735 163.553 35.7618 163.279 35.5397C163.005 35.3176 162.946 34.9611 163.11 34.4702L163.459 32.4131L163.454 32.4189Z" fill="#F0D439"/>
<path d="M155.81 15.3532L152.703 14.4298C151.846 14.1142 151.443 13.635 151.496 12.9921C151.548 12.3551 151.811 11.9109 152.283 11.6654L155.828 10.2511L156.102 7.34653C156.09 6.78548 156.312 6.3647 156.755 6.07833C157.198 5.79196 157.752 5.91469 158.41 6.44067L160.783 8.76669L164.217 8.67318C164.824 8.52123 165.226 8.63811 165.407 9.01799C165.593 9.39787 165.512 9.85956 165.168 10.4031L163.366 13.2142L164.643 16.0779C164.923 16.598 164.888 17.0538 164.538 17.4454C164.188 17.8428 163.699 18.0006 163.086 17.9305L160.445 17.0305L157.967 19.5143C157.559 19.9117 157.122 19.9994 156.661 19.789C156.195 19.5786 155.991 19.0993 156.043 18.3454L155.798 15.3473L155.81 15.3532Z" fill="#F0D439"/>
<path d="M40.1802 64.9437C37.7023 64.9671 35.51 63.1203 35.0902 60.5195C34.6413 57.7317 34.4139 56.3407 33.9649 53.547C29.2889 54.3945 26.9509 54.8153 22.2806 55.6802C21.995 55.7328 21.7034 55.7621 21.4177 55.7679C20.3333 55.7738 19.2663 55.4289 18.3684 54.7627C17.2314 53.9152 16.4618 52.6353 16.2403 51.2034C15.6281 47.1999 15.319 45.2011 14.701 41.1977C14.4795 39.7775 14.8176 38.3339 15.6397 37.2C16.4618 36.0662 17.7037 35.324 19.0797 35.1486C20.9979 34.9032 21.96 34.7863 23.8782 34.5467C22.8345 33.4596 21.9075 32.2439 21.0971 30.9231C19.6453 28.5619 18.6891 25.9319 18.2576 23.1149C17.8262 20.3329 17.9603 17.5802 18.6541 14.9385C19.3304 12.3669 20.4674 9.99989 22.0358 7.91341C23.61 5.81525 25.5807 4.06775 27.9012 2.71183C30.2567 1.33254 32.8863 0.467557 35.7082 0.146112C36.7053 0.0292223 37.7139 -0.0175334 38.7051 0.00584447C40.4951 0.0526002 42.2734 0.333135 43.9875 0.841604C46.5996 1.61892 49.0017 2.83457 51.1124 4.44764C53.2172 6.06071 54.9955 8.01277 56.4006 10.2629C57.8699 12.6065 58.797 15.1839 59.1759 17.925C59.5549 20.707 59.3567 23.4363 58.5929 26.0546C58.1148 27.6852 57.4501 29.2282 56.6222 30.6601C59.3742 30.3445 60.756 30.1925 63.5197 29.8886C63.7412 29.8652 63.9569 29.8594 64.1727 29.8594C66.6856 29.8945 68.872 31.7472 69.2743 34.2837C69.7641 37.3812 70.009 38.93 70.4929 42.0217C70.936 44.8446 69.0236 47.4921 66.225 47.9656C61.8755 48.6903 57.5376 49.4325 53.1939 50.1865C53.6603 53.097 53.8877 54.5523 54.3483 57.457C54.5699 58.8479 54.2317 60.274 53.4096 61.4078C52.5933 62.5475 51.3631 63.3014 49.9988 63.506C46.3605 64.0495 44.5414 64.3242 40.909 64.8853C40.6642 64.9204 40.4251 64.9437 40.1861 64.9437" fill="#3B3983"/>
<path d="M77.7172 56.3991C75.1692 56.3874 72.7321 55.8731 70.464 54.862C68.2601 53.8801 66.2952 52.5242 64.6394 50.8293C62.9777 49.1344 61.6542 47.1297 60.6921 44.8738C59.7068 42.5593 59.2112 40.0696 59.2229 37.4863C59.2345 34.9323 59.7593 32.4718 60.7796 30.1925C61.7591 27.9891 63.1176 26.0312 64.8085 24.3772C66.511 22.7057 68.5225 21.3848 70.7847 20.438C73.1227 19.4679 75.6357 19.012 78.2477 19.0763C80.8656 19.1406 83.3611 19.725 85.6583 20.8121C86.9293 21.4082 88.1129 22.1271 89.209 22.9512C89.4656 22.507 89.7979 22.1096 90.1827 21.753C91.1797 20.853 92.4974 20.3737 93.8501 20.4147C93.9376 20.4147 94.025 20.4205 94.1125 20.4263C97.6632 20.701 99.4357 20.8413 102.992 21.1218C104.38 21.2329 105.668 21.8758 106.566 22.9044C107.47 23.933 107.913 25.2656 107.802 26.6156C107.721 27.6092 107.674 28.106 107.593 29.0995C108.152 29.1755 108.432 29.2164 108.986 29.2866C111.721 29.6489 113.68 32.0276 113.458 34.6985C113.266 36.972 113.172 38.1059 112.98 40.3735C112.753 43.0678 110.414 45.1368 107.657 45.0842C107.097 45.0725 106.817 45.0725 106.263 45.0608C106.065 47.3752 105.972 48.5324 105.779 50.8527C105.552 53.547 103.237 55.6276 100.503 55.5984C97.6691 55.5691 96.2464 55.5574 93.4128 55.5282C91.4246 55.5107 89.7221 54.3769 88.9 52.7229C87.6989 53.5937 86.3987 54.3301 85.0111 54.9321C82.7255 55.9081 80.2767 56.4049 77.723 56.3932" fill="#3B3983"/>
<path d="M128.179 68.9939C127.328 68.9881 126.465 68.9063 125.614 68.7485C123.602 68.3803 121.772 67.6439 120.157 66.5451C118.6 65.4873 117.282 64.1723 116.244 62.6235C115.207 61.0805 114.478 59.3564 114.087 57.5096C113.685 55.5984 113.691 53.6113 114.116 51.6125C114.53 49.6488 115.335 47.837 116.489 46.2122C116.67 45.9609 116.857 45.7213 117.043 45.4875C115.037 44.9966 113.201 44.19 111.557 43.062C109.738 41.8172 108.204 40.2918 106.997 38.5092C105.796 36.7325 104.951 34.7395 104.478 32.5946C103.994 30.3854 103.989 28.0944 104.478 25.8033C104.945 23.5766 105.86 21.5076 107.201 19.6666C108.49 17.8958 110.082 16.3937 111.918 15.2248C113.761 14.0442 115.825 13.2202 118.046 12.7643C119.369 12.4955 120.734 12.3844 122.098 12.437C123.095 12.4779 124.11 12.6007 125.118 12.8111C128.226 13.4598 130.949 14.8391 133.205 16.9022C133.794 17.4399 134.336 18.0068 134.844 18.6029C136.394 18.8542 137.17 18.977 138.727 19.2224C139.146 18.6205 139.706 18.1003 140.377 17.7204C141.269 17.212 142.295 16.9665 143.315 17.0132C143.7 17.0249 144.097 17.0834 144.476 17.1827C148.015 18.1062 149.781 18.5679 153.309 19.4854C154.661 19.842 155.798 20.6836 156.475 21.8408C157.151 22.9921 157.303 24.3539 156.906 25.6163C154.702 32.6998 152.516 39.795 150.353 46.8902C149.67 49.1344 147.49 50.6248 145.146 50.5722C144.849 50.5722 144.546 50.5313 144.248 50.4787L143.269 50.2858C143.374 50.6423 143.461 51.0105 143.543 51.3787C143.939 53.2957 143.91 55.2478 143.461 57.194C143 59.1752 142.149 60.987 140.942 62.5884C139.788 64.1138 138.4 65.3996 136.826 66.4282C135.217 67.4802 133.433 68.2225 131.532 68.6433C130.424 68.8887 129.299 69.0056 128.179 68.9998" fill="#3B3983"/>
<path d="M59.2283 37.1064C46.4596 38.5968 34.9852 40.1573 22.0124 41.8171C21.371 41.934 21.2894 42.4658 21.3827 43.0853C21.8083 45.8848 22.0007 47.1706 22.4438 50.0812C22.5138 50.5604 22.747 50.7065 23.0677 50.7065C23.1493 50.7065 23.2426 50.6948 23.3359 50.6773C28.525 49.7422 33.7141 48.8188 38.9091 47.9187L38.9966 47.907C39.1015 47.907 39.2123 47.9421 39.2998 48.0122C39.4105 48.094 39.4863 48.2226 39.5096 48.357C40.2326 52.8339 40.6058 55.1775 41.2821 59.4498C41.3462 59.8823 41.5328 60.0051 41.836 60.0051C41.9176 60.0051 42.0109 59.9992 42.1159 59.9817C44.4131 59.6427 46.9843 59.2628 48.1679 59.0875C48.5877 59.029 48.8034 58.7544 48.7626 58.3394C48.5586 56.475 47.9813 50.9929 47.5674 46.9836C47.5207 46.6972 47.7073 46.4284 47.9813 46.3816C52.5758 45.5926 56.1498 44.8211 60.3653 44.0614C59.5898 41.9807 59.2108 39.7715 59.2225 37.4863C59.2225 37.3636 59.2225 37.235 59.2283 37.1123" fill="#29285E"/>
<path d="M62.4062 36.75C62.3596 36.75 62.3188 36.75 62.2663 36.7558C61.2402 36.8727 60.2315 36.9896 59.2287 37.1123C59.2287 37.2351 59.2229 37.3578 59.2229 37.4864C59.2112 39.7715 59.6019 41.9864 60.3715 44.0612C61.3218 43.8917 62.3071 43.7163 63.3449 43.5469C63.9862 43.4124 63.9571 42.752 63.9163 42.4481C63.6306 40.6481 63.4324 39.4091 63.1409 37.5916C63.0417 37.0305 62.8843 36.7441 62.4121 36.7441" fill="#29285E"/>
<path d="M40.804 58.8364C40.3842 58.8364 39.8653 58.6611 39.7371 57.837C39.0607 53.5764 38.6817 51.2328 37.9588 46.7501C32.8862 47.6267 27.6446 48.556 22.3914 49.5028C22.2573 49.5262 22.1407 49.5437 22.0299 49.5437C21.4118 49.5437 20.9979 49.1522 20.8929 48.4684L19.8318 41.4725C19.6161 40.064 20.3973 39.7017 20.8754 39.614C24.5195 39.1464 28.0236 38.6906 31.4578 38.2405C41.3929 36.9489 50.7683 35.7333 61.1582 34.541C61.2399 34.5351 61.304 34.5293 61.3681 34.5293C62.3885 34.5293 62.5517 35.4586 62.61 35.8034C62.61 35.8034 63.1231 39.0003 63.3855 40.666C63.5254 41.5427 63.1406 42.2089 62.406 42.3609C59.3741 42.8577 56.8612 43.3486 54.1966 43.8629C51.9577 44.2954 49.6489 44.7454 47.0368 45.1955C47.4624 49.2457 48.0455 54.7219 48.2437 56.5863C48.3137 57.276 47.8997 57.802 47.2059 57.9072C46.0223 58.0825 43.4511 58.4624 41.1539 58.8014C41.0139 58.8248 40.9031 58.8306 40.7982 58.8306" fill="#B8C0DC"/>
<path d="M61.706 35.3765C61.6011 34.7687 61.4204 34.4823 60.8315 34.5349C46.8208 36.1363 34.571 37.8078 20.5837 39.6021C19.9423 39.7248 19.8607 40.245 19.954 40.8703C20.3796 43.6698 20.572 44.9556 21.0151 47.8662C21.1084 48.474 21.4524 48.55 21.9072 48.4623C27.0963 47.5272 32.2854 46.6038 37.4804 45.7037L37.5679 45.692C37.6728 45.692 37.7836 45.7271 37.871 45.7914C37.9818 45.8732 38.0576 45.9959 38.0809 46.1362C38.8039 50.6131 39.1771 52.9509 39.8592 57.229C39.9409 57.7842 40.2091 57.8251 40.6813 57.7609C42.9785 57.416 45.5498 57.0361 46.7334 56.8667C47.1532 56.8082 47.3689 56.5335 47.3281 56.1186C47.1298 54.2483 46.5468 48.7721 46.1328 44.7569C46.0862 44.4705 46.2728 44.2075 46.5526 44.1549C52.179 43.1906 56.2779 42.2438 61.9101 41.3204C62.5515 41.1918 62.5281 40.5255 62.4815 40.2216C62.1958 38.4157 61.9976 37.1825 61.706 35.3649" fill="white"/>
<path d="M40.0871 26.487H40.0113C38.9152 26.4694 37.889 26.1188 36.9562 25.4408C35.7842 24.5875 35.0904 23.4479 34.8863 22.0452C34.6823 20.6893 35.0263 19.4327 35.9008 18.293C36.7696 17.1592 37.9299 16.4988 39.3408 16.3293C39.5449 16.3059 39.749 16.2942 39.953 16.2942H40.0405C41.1075 16.3176 42.1336 16.6858 43.0898 17.4047C44.2618 18.2813 44.9556 19.4093 45.1422 20.7536C45.3462 22.1504 44.9964 23.4186 44.1102 24.5232C43.2298 25.6278 42.122 26.2766 40.8101 26.4402C40.5652 26.4694 40.3204 26.4928 40.0813 26.4928M39.1834 6.83203C38.577 6.83203 37.9648 6.8671 37.341 6.94308C35.3003 7.1827 33.4054 7.80806 31.7204 8.79577C30.0295 9.78349 28.5952 11.0517 27.4641 12.5596C26.333 14.0616 25.5051 15.7682 25.0153 17.6209C24.5197 19.4736 24.4265 21.4023 24.7238 23.366C25.0328 25.3707 25.7033 27.2351 26.7237 28.9066C27.7498 30.5781 29.0384 31.9983 30.5543 33.1321C32.0702 34.266 33.8019 35.0959 35.6968 35.5985C36.8862 35.92 38.1223 36.0894 39.3641 36.0953H39.4866C40.1746 36.0953 40.8801 36.0427 41.5856 35.9492C43.6029 35.6745 45.4687 35.0433 47.1245 34.0673C48.7804 33.0912 50.203 31.8522 51.3458 30.3852C52.4886 28.9183 53.3398 27.2351 53.8762 25.3882C54.4068 23.5472 54.5467 21.6068 54.2669 19.6373C53.9928 17.7086 53.3398 15.9026 52.3137 14.2604C51.2817 12.6181 49.9815 11.1862 48.4539 10.0231C46.9263 8.86006 45.183 7.97755 43.2822 7.42232C42.0637 7.05997 40.8043 6.86125 39.5274 6.83788C39.4166 6.83788 39.3 6.83788 39.1834 6.83788" fill="#29285E"/>
<path d="M38.3262 34.9149C37.0434 34.9032 35.7607 34.7337 34.5305 34.4064C32.5715 33.8804 30.7815 33.0213 29.2131 31.8524C27.6447 30.6835 26.3095 29.2107 25.2542 27.4807C24.1931 25.7449 23.4934 23.8162 23.1786 21.7473C22.8695 19.7134 22.9745 17.7088 23.4817 15.7918C23.989 13.869 24.8461 12.1039 26.0238 10.5434C27.1958 8.98882 28.6825 7.66797 30.4317 6.64519C32.1808 5.62241 34.1399 4.97367 36.2563 4.72236C36.8919 4.64638 37.5274 4.60547 38.1571 4.60547C38.2795 4.60547 38.3961 4.60547 38.5127 4.60547C39.8304 4.64054 41.1364 4.84509 42.3958 5.21329C44.3607 5.7919 46.1565 6.69779 47.7366 7.90175C49.3166 9.10571 50.6518 10.5785 51.7188 12.2734C52.7858 13.9683 53.4679 15.8444 53.7478 17.849C54.0335 19.8888 53.8994 21.8993 53.3396 23.8162C52.7858 25.7274 51.9054 27.469 50.7218 28.9944C49.5382 30.514 48.0689 31.7998 46.3489 32.8109C44.6347 33.8278 42.7048 34.4824 40.6234 34.7571C39.8887 34.8564 39.1599 34.9032 38.4486 34.9032H38.3262V34.9149ZM38.9209 15.108C38.7401 15.108 38.5535 15.1197 38.367 15.1372C37.1018 15.295 36.0581 15.8911 35.2768 16.9081C34.4955 17.925 34.1865 19.053 34.3673 20.2686C34.5538 21.5252 35.1777 22.5538 36.2272 23.3195C37.0726 23.939 37.9997 24.2546 38.985 24.2663H39.055C39.2707 24.2663 39.4923 24.2546 39.7196 24.2253C40.8916 24.0734 41.8886 23.4948 42.6757 22.4954C43.4745 21.5018 43.7835 20.368 43.6027 19.1231C43.4278 17.9192 42.8098 16.9022 41.7486 16.1132C40.8857 15.4645 39.9587 15.1255 39.0025 15.108H38.9209Z" fill="#B8C0DC"/>
<path d="M25.3007 26.6859C26.3269 28.3574 27.6154 29.7776 29.1313 30.9114C30.6473 32.0453 32.3789 32.8752 34.268 33.3778C35.4633 33.6934 36.6935 33.8629 37.9354 33.8746C38.6642 33.8863 39.4105 33.8337 40.1568 33.7343C42.1741 33.4596 44.0399 32.8284 45.6957 31.8524C47.3516 30.8764 48.7742 29.6373 49.9228 28.1645C51.0656 26.6976 51.9169 25.0144 52.4533 23.1675C52.9897 21.3265 53.1238 19.392 52.8439 17.4166C52.5699 15.4879 51.9169 13.6819 50.8907 12.0455C49.8587 10.4032 48.5585 8.97715 47.0368 7.80826C45.515 6.63936 43.7717 5.76269 41.8651 5.20162C40.6465 4.84511 39.3872 4.6464 38.1103 4.61718C37.399 4.59964 36.6585 4.63471 35.9297 4.72238C33.8832 4.962 31.9941 5.58736 30.3033 6.57507C28.6124 7.56279 27.1781 8.83104 26.047 10.3389C24.9101 11.8468 24.088 13.5534 23.5982 15.4061C23.1026 17.2529 23.0093 19.1874 23.3067 21.1512C23.6157 23.1558 24.2862 25.0202 25.3066 26.6917M34.4779 16.0782C35.3525 14.9444 36.5069 14.2839 37.9179 14.1086C38.1511 14.0794 38.3902 14.0677 38.6234 14.0735C39.6904 14.0911 40.7107 14.4651 41.6669 15.184C42.8388 16.0606 43.5268 17.1886 43.725 18.5329C43.9233 19.9297 43.5735 21.1921 42.6931 22.3025C41.8185 23.4071 40.7049 24.05 39.393 24.2195C39.119 24.2546 38.8508 24.2721 38.5884 24.2663C37.4864 24.2546 36.4603 23.9039 35.5332 23.2201C34.3671 22.361 33.6675 21.2272 33.4634 19.8245C33.2652 18.4686 33.6033 17.2062 34.4779 16.0723" fill="white"/>
<path d="M105.33 35.3589C105.773 36.4693 106.333 37.5271 107.003 38.5206C107.423 39.1401 107.89 39.7362 108.385 40.2973C108.432 40.2213 108.467 40.122 108.484 39.9934C108.589 38.6843 108.671 37.7492 108.776 36.4401C108.811 36.0193 108.712 35.8031 108.339 35.7563C107.172 35.6043 106.286 35.4875 105.33 35.3647" fill="#29285E"/>
<path d="M94.7774 49.801C93.7162 49.7835 93.5996 48.9886 93.5996 48.6496C93.5996 43.8163 93.6521 38.8017 93.7046 33.9567C93.7279 31.5312 93.757 29.1116 93.7745 26.727C93.757 26.166 93.897 25.7218 94.1885 25.4179C94.4509 25.1432 94.824 25.0029 95.2905 25.0029C95.3546 25.0029 95.4246 25.0029 95.4945 25.0146C96.3982 25.0789 97.2612 25.1432 98.1357 25.2075C99.2027 25.2835 100.281 25.3653 101.494 25.453C101.885 25.4763 102.13 25.6634 102.264 25.8153C102.485 26.0725 102.584 26.4465 102.549 26.8907L102.071 32.8579L107.365 33.5359C107.733 33.5885 108.339 33.8105 108.252 34.7807L107.96 38.3342C107.89 38.9654 107.459 39.3628 106.87 39.3628L101.564 39.2576L101.418 41.046L100.8 48.6964C100.713 49.4562 100.31 49.8653 99.6691 49.8653C99.6691 49.8653 96.5848 49.8244 94.7715 49.801" fill="#B8C0DC"/>
<path d="M106.91 33.5358C104.91 33.2728 103.762 33.1209 101.616 32.8403C101.342 32.8053 101.144 32.5656 101.167 32.2968C101.36 29.8713 101.465 28.5271 101.64 26.3296C101.663 26.0666 101.651 25.4938 101.062 25.4529C98.8584 25.2834 97.0859 25.1607 95.0627 25.0087C94.2931 24.9503 93.8733 25.2951 93.9025 26.2068C93.8442 33.4365 93.7275 40.9057 93.7275 48.1295C93.7275 48.7548 94.1765 48.7548 94.3922 48.7607C96.1997 48.784 97.3599 48.8016 99.1674 48.8249C99.3831 48.8249 99.8087 48.8834 99.8904 48.1295C100.182 44.5234 100.345 42.5071 100.654 38.6906C100.677 38.4159 100.911 38.2114 101.185 38.2172C103.295 38.2581 104.531 38.2815 106.461 38.3224C106.66 38.3224 106.998 38.2523 107.05 37.7731C107.155 36.4639 107.231 35.5288 107.342 34.2196C107.377 33.7988 107.278 33.5884 106.904 33.5358" fill="white"/>
<path d="M79.7516 44.564H79.6874C78.9003 44.5523 78.1482 44.3886 77.4544 44.0789C76.7722 43.7691 76.1542 43.3425 75.6294 42.7989C75.1047 42.2612 74.6849 41.63 74.3934 40.9404C74.096 40.239 73.9502 39.4851 73.9561 38.6961C73.9619 37.9422 74.131 37.2058 74.44 36.5161C74.749 35.8323 75.1805 35.2186 75.7227 34.6926C76.2591 34.1725 76.8888 33.7575 77.5826 33.4536C78.259 33.1556 78.9878 33.0094 79.7399 33.0094H79.8449C80.6086 33.0211 81.3433 33.2023 82.0429 33.5354C82.7309 33.8686 83.349 34.3069 83.8679 34.8446C84.3926 35.3823 84.8124 36.0018 85.1214 36.6915C85.4363 37.3928 85.5879 38.1292 85.5762 38.8831C85.5646 39.6721 85.3838 40.4144 85.0515 41.1099C84.725 41.7878 84.2819 42.3957 83.7396 42.9158C83.1974 43.4418 82.5735 43.8509 81.8739 44.1432C81.1975 44.4295 80.4745 44.5756 79.7457 44.5756M79.1394 25.7974C77.4544 25.7974 75.8451 26.113 74.3467 26.7383C72.7433 27.4104 71.3323 28.3397 70.1429 29.5086C68.9535 30.6775 67.9915 32.0626 67.286 33.6173C66.5863 35.1719 66.2248 36.8493 66.2132 38.5968C66.2015 40.3852 66.5339 42.0917 67.2102 43.6756C67.8865 45.2711 68.8136 46.6738 69.9738 47.8602C71.1341 49.0467 72.5159 49.9993 74.0785 50.7006C75.6352 51.3961 77.3261 51.7585 79.0927 51.7702H79.2152C80.941 51.7702 82.591 51.4429 84.1186 50.7883C85.687 50.122 87.0921 49.1986 88.2991 48.0531C89.506 46.9017 90.4797 45.54 91.1968 43.9854C91.914 42.4366 92.2988 40.765 92.3279 39.0059C92.3629 37.2817 92.0481 35.6219 91.3892 34.0614C90.7304 32.501 89.7975 31.0983 88.6314 29.8943C87.4478 28.6845 86.066 27.7027 84.4976 26.9663C82.9408 26.2357 81.2442 25.8383 79.4542 25.7974C79.3493 25.7974 79.2443 25.7974 79.1452 25.7974" fill="#29285E"/>
<path d="M78.0491 50.5898C76.2067 50.5722 74.4459 50.1982 72.825 49.4735C71.1983 48.7429 69.764 47.7552 68.5629 46.522C67.3618 45.2888 66.3882 43.8277 65.6885 42.1796C64.9888 40.5256 64.639 38.7489 64.6507 36.8903C64.6623 35.0669 65.0413 33.3135 65.7701 31.6946C66.4989 30.0757 67.4959 28.6438 68.732 27.4281C69.9739 26.2125 71.4432 25.2482 73.099 24.5527C74.6616 23.8981 76.3408 23.5708 78.0958 23.5708C78.2007 23.5708 78.3115 23.5708 78.4164 23.5708C80.2822 23.6117 82.0488 24.0208 83.6755 24.7806C85.2964 25.5462 86.7424 26.5632 87.9609 27.8197C89.1795 29.0704 90.1415 30.5257 90.8295 32.1505C91.5175 33.7752 91.8499 35.511 91.8091 37.3111C91.7741 39.1405 91.3718 40.888 90.6255 42.501C89.8792 44.1083 88.8705 45.5285 87.6111 46.7207C86.3576 47.913 84.8999 48.8657 83.2732 49.5611C81.6815 50.2391 79.9615 50.5839 78.1657 50.5839H78.0433L78.0491 50.5898ZM78.6963 31.829C78.0141 31.829 77.3611 31.9693 76.7489 32.2323C76.1134 32.5128 75.5304 32.8927 75.0406 33.372C74.545 33.8512 74.1485 34.4064 73.8687 35.0318C73.5888 35.6572 73.4372 36.3234 73.4314 37.0014C73.4255 37.7144 73.5538 38.3982 73.822 39.0353C74.0902 39.6723 74.475 40.2392 74.9531 40.736C75.4312 41.2269 75.9968 41.6185 76.6265 41.9049C77.2562 42.1854 77.9383 42.3374 78.6497 42.3432H78.7138C79.3726 42.3432 80.0198 42.2147 80.6437 41.9517C81.2734 41.6887 81.8506 41.3146 82.3462 40.8354C82.836 40.3561 83.2441 39.8009 83.5473 39.1755C83.8446 38.5502 84.0079 37.8781 84.0195 37.165C84.0312 36.4929 83.8913 35.8266 83.6114 35.1954C83.3257 34.5642 82.9409 33.9915 82.4628 33.5006C81.9847 33.0038 81.4191 32.6005 80.7836 32.2966C80.1539 31.9985 79.4834 31.8349 78.7954 31.8173H78.6963V31.829Z" fill="#B8C0DC"/>
<path d="M87.1978 27.6679C86.0201 26.4581 84.6324 25.4762 83.0698 24.7398C81.5131 24.0092 79.8106 23.6177 78.0265 23.5709C76.2365 23.53 74.5165 23.8456 72.919 24.5177C71.3214 25.184 69.9046 26.1191 68.7152 27.2821C67.5199 28.451 66.5579 29.8362 65.8583 31.3966C65.1586 32.9454 64.7971 34.6228 64.7855 36.3761C64.7738 38.1645 65.1061 39.8711 65.7825 41.4608C66.453 43.0505 67.3858 44.459 68.5461 45.6396C69.7064 46.826 71.0882 47.7787 72.6508 48.48C74.2075 49.1755 75.8984 49.5379 77.665 49.5496C79.4316 49.5671 81.1283 49.234 82.685 48.5677C84.2534 47.9014 85.6586 46.978 86.8655 45.8266C88.0724 44.6811 89.0461 43.3135 89.7632 41.7589C90.4804 40.2101 90.8594 38.5327 90.8943 36.7794C90.9293 35.0553 90.6145 33.3955 89.9556 31.835C89.2968 30.2745 88.3639 28.866 87.192 27.662M83.6121 38.8834C83.2797 39.5614 82.8425 40.1692 82.3002 40.6894C81.758 41.2154 81.1341 41.6245 80.4345 41.9167C79.7348 42.2089 78.9885 42.355 78.2364 42.3492C77.4551 42.3375 76.703 42.1738 76.0091 41.8582C75.3211 41.5485 74.7031 41.1218 74.1784 40.5842C73.6536 40.0465 73.2338 39.4153 72.9423 38.7256C72.6449 38.0243 72.4992 37.2703 72.505 36.4813C72.5167 35.7274 72.6799 34.991 72.9889 34.3013C73.298 33.6117 73.7294 33.0039 74.2716 32.4779C74.8139 31.9636 75.4377 31.5369 76.1374 31.233C76.8429 30.9232 77.6067 30.7771 78.3996 30.7888C79.1576 30.8005 79.8981 30.9817 80.5977 31.3207C81.2857 31.648 81.9038 32.0921 82.4285 32.624C82.9474 33.1617 83.373 33.7812 83.682 34.4708C83.9969 35.1722 84.1485 35.9144 84.131 36.6684C84.1252 37.4515 83.9444 38.1996 83.6121 38.8893" fill="white"/>
<path d="M129.626 58.6551H129.574C129.375 58.6551 129.165 58.6317 128.961 58.5908C128.081 58.4271 127.387 57.9771 126.903 57.2524C126.419 56.5335 126.268 55.727 126.46 54.862C126.647 53.997 127.131 53.3015 127.877 52.8048C128.442 52.4307 129.055 52.2378 129.696 52.2378H129.76C129.952 52.2378 130.157 52.2612 130.355 52.2963C131.247 52.4716 131.935 52.9275 132.43 53.6697C132.926 54.412 133.078 55.2244 132.885 56.0835C132.693 56.9485 132.203 57.6323 131.433 58.1174C130.862 58.4739 130.256 58.6492 129.62 58.6492M129.842 46.3232C129.2 46.3232 128.559 46.3934 127.935 46.5336C126.728 46.8025 125.603 47.2759 124.588 47.9246C123.574 48.5792 122.699 49.415 121.988 50.4085C121.277 51.4021 120.787 52.5125 120.519 53.7223C120.256 54.9672 120.239 56.1829 120.484 57.3401C120.734 58.5031 121.189 59.5902 121.836 60.5545C122.489 61.5247 123.317 62.3605 124.303 63.0326C125.282 63.6988 126.419 64.1547 127.673 64.3885C128.209 64.4878 128.74 64.5404 129.27 64.5463H129.375C130.022 64.5463 130.681 64.4762 131.323 64.3359C132.53 64.0787 133.655 63.6112 134.658 62.9566C135.666 62.302 136.553 61.4721 137.281 60.5019C138.01 59.5376 138.517 58.4271 138.797 57.2056C139.071 56.0134 139.083 54.8153 138.832 53.6522C138.587 52.4775 138.133 51.3904 137.485 50.4202C136.838 49.45 135.999 48.6084 134.996 47.9071C133.999 47.2116 132.868 46.744 131.637 46.5044C131.095 46.3992 130.559 46.3408 130.028 46.3291C129.964 46.3291 129.9 46.3291 129.83 46.3291" fill="#29285E"/>
<path d="M128.232 63.3835C127.679 63.3776 127.107 63.3192 126.547 63.2198C125.224 62.9685 124.023 62.4893 122.985 61.7762C121.941 61.0691 121.067 60.1924 120.373 59.1638C119.685 58.1351 119.201 56.9896 118.944 55.7564C118.682 54.5233 118.7 53.2375 118.985 51.9225C119.259 50.6425 119.778 49.4619 120.536 48.4158C121.288 47.3638 122.21 46.4871 123.282 45.7975C124.349 45.1078 125.533 44.6169 126.798 44.3363C127.457 44.1902 128.133 44.1143 128.815 44.1143C128.885 44.1143 128.955 44.1143 129.025 44.1143C129.579 44.1259 130.151 44.1902 130.716 44.2954C132.016 44.5467 133.218 45.0494 134.273 45.7858C135.328 46.5222 136.214 47.4105 136.902 48.4392C137.585 49.4619 138.068 50.6133 138.331 51.8523C138.593 53.0914 138.576 54.3655 138.29 55.6279C137.999 56.9195 137.456 58.0942 136.687 59.1229C135.911 60.1456 134.984 61.0106 133.923 61.7003C132.868 62.3899 131.684 62.8808 130.413 63.1497C129.737 63.2958 129.037 63.3718 128.355 63.3718H128.244L128.232 63.3835ZM128.658 51.0633C128.116 51.0633 127.603 51.2211 127.13 51.5426C126.495 51.9692 126.093 52.5537 125.935 53.2784C125.772 54.0089 125.889 54.6635 126.297 55.2655C126.699 55.8675 127.276 56.2415 128.023 56.3818C128.192 56.4169 128.367 56.4344 128.547 56.4402C129.125 56.4402 129.643 56.2824 130.127 55.9844C130.775 55.5753 131.183 55.0025 131.346 54.2778C131.509 53.5472 131.381 52.8985 130.973 52.2673C130.553 51.6478 129.97 51.262 129.229 51.1218C129.06 51.0867 128.885 51.0692 128.722 51.0633H128.67H128.658Z" fill="#B8C0DC"/>
<path d="M136.075 48.211C135.427 47.2466 134.588 46.3992 133.585 45.6978C132.588 45.0023 131.457 44.5289 130.221 44.2893C129.684 44.19 129.142 44.1257 128.617 44.1198C127.912 44.1023 127.201 44.1724 126.513 44.3244C125.306 44.5932 124.18 45.0608 123.166 45.7154C122.151 46.3699 121.277 47.2057 120.566 48.2051C119.854 49.1987 119.359 50.3091 119.102 51.5189C118.834 52.7638 118.816 53.9736 119.061 55.1308C119.306 56.2997 119.761 57.3809 120.414 58.3511C121.067 59.3213 121.901 60.157 122.886 60.8292C123.866 61.4954 125.003 61.9513 126.256 62.1851C126.787 62.2844 127.323 62.337 127.854 62.3429C128.536 62.3487 129.224 62.2786 129.906 62.1325C131.113 61.8695 132.238 61.4019 133.241 60.7473C134.25 60.0986 135.136 59.2687 135.871 58.2927C136.599 57.3283 137.107 56.2237 137.386 54.9964C137.655 53.81 137.672 52.6118 137.421 51.4429C137.177 50.2682 136.722 49.1753 136.075 48.211ZM131.463 53.8684C131.264 54.7334 130.775 55.4172 130.011 55.8964C129.428 56.2646 128.798 56.4458 128.145 56.4341C127.947 56.4341 127.737 56.4107 127.533 56.3698C126.653 56.2062 125.953 55.7562 125.469 55.0314C124.985 54.3067 124.839 53.506 125.032 52.6411C125.224 51.7761 125.702 51.0864 126.449 50.5838C127.026 50.1922 127.661 50.0052 128.332 50.0169C128.524 50.0169 128.728 50.0344 128.926 50.0812C129.813 50.2448 130.507 50.7124 131.008 51.4488C131.504 52.1852 131.655 52.9976 131.463 53.8626" fill="white"/>
<path d="M141.199 35.7742H141.117C138.12 35.3417 136.622 35.1313 133.619 34.7047C133.462 34.6813 133.322 34.5936 133.246 34.4592C133.17 34.3248 133.159 34.167 133.223 34.0209C133.427 33.5591 133.584 33.0741 133.701 32.5714C133.847 31.9227 133.922 31.3207 133.917 30.7889C133.917 30.6311 133.987 30.485 134.109 30.3914C134.202 30.3155 134.319 30.2746 134.435 30.2746H134.453L134.552 30.2862C137.508 30.9467 138.983 31.274 141.933 31.9344C142.208 31.9987 142.377 32.25 142.324 32.5188C142.079 33.6527 141.957 34.2254 141.712 35.3651C141.665 35.6047 141.444 35.7684 141.199 35.7684M122.693 34.5293C122.658 34.5293 122.623 34.5293 122.588 34.5293C122.355 34.5235 122.121 34.4943 121.888 34.4534C120.728 34.2196 119.813 33.6059 119.171 32.6299C118.53 31.6539 118.326 30.6077 118.559 29.5148C118.676 28.9712 118.909 28.4628 119.241 28.0186C119.568 27.5803 119.964 27.2062 120.413 26.9081C120.874 26.6042 121.399 26.388 121.97 26.2828C122.25 26.2243 122.53 26.201 122.809 26.201H122.949C123.188 26.2127 123.433 26.2419 123.678 26.2886C124.25 26.4055 124.763 26.6276 125.212 26.9491C125.643 27.2588 126.028 27.6504 126.331 28.1004C126.64 28.5563 126.85 29.0589 126.967 29.5849C127.083 30.1168 127.077 30.6661 126.961 31.2097C126.838 31.7532 126.611 32.2558 126.273 32.7C125.94 33.1442 125.538 33.5124 125.066 33.8163C124.599 34.1085 124.092 34.3248 123.562 34.4417C123.282 34.506 122.99 34.5352 122.699 34.5352M122.349 19.0356C121.603 19.0356 120.85 19.1116 120.127 19.2636C118.617 19.5733 117.224 20.1402 115.976 20.9351C114.728 21.7299 113.644 22.7527 112.758 23.9684C111.877 25.1723 111.277 26.5283 110.962 27.9952C110.635 29.5265 110.635 31.0343 110.944 32.4896C111.259 33.939 111.831 35.2891 112.641 36.4814C113.446 37.6795 114.484 38.7198 115.725 39.5614C116.962 40.4089 118.378 40.9933 119.941 41.2972C120.629 41.4317 121.323 41.5076 121.999 41.5252H122.267C123.556 41.5252 124.833 41.3089 126.075 40.8764C128.057 40.1868 129.748 39.0763 131.095 37.5743C131.2 37.4633 131.345 37.399 131.491 37.399H131.503C131.579 37.399 131.649 37.4165 131.718 37.4516C131.934 37.5509 132.045 37.7789 131.993 38.0009C131.882 38.5036 131.812 38.8016 131.718 39.2341C131.637 39.5205 131.864 39.5731 131.963 39.5965C135.054 40.2803 136.686 40.6426 139.875 41.344C140.149 41.4024 140.318 41.6596 140.26 41.9226C140.05 42.8928 139.706 44.5117 139.706 44.5175C139.695 44.6695 139.735 44.8682 139.969 44.9266C139.969 44.9266 143.286 45.5871 145.292 45.9786C145.356 45.9903 145.443 46.0137 145.531 46.0137C145.717 46.0137 145.927 45.9319 146.073 45.5462C148.015 39.0997 149.898 32.9046 151.869 26.4698C151.991 26.0665 152.038 25.6808 151.431 25.5113C148.866 24.845 147.542 24.5061 144.93 23.8281C144.872 23.8164 144.82 23.8106 144.767 23.8106C144.4 23.8106 144.225 24.1262 144.196 24.2372C144.032 24.9444 143.962 25.2366 143.776 26.0432C143.723 26.2769 143.502 26.4347 143.263 26.4347H143.175C139.869 25.9087 138.149 25.6399 134.96 25.1431C134.908 25.1314 134.855 25.1256 134.809 25.1256C134.558 25.1256 134.535 25.2834 134.523 25.3594C134.441 25.8211 134.383 26.125 134.29 26.651C134.255 26.8789 134.057 27.0484 133.817 27.0718H133.753C133.538 27.0659 133.351 26.9315 133.281 26.7328C132.634 24.921 131.555 23.3138 130.074 21.9579C128.599 20.6137 126.809 19.7136 124.757 19.2928C124.081 19.1525 123.404 19.0707 122.745 19.0473C122.611 19.0473 122.477 19.0415 122.343 19.0415" fill="#29285E"/>
<path d="M144.488 44.8387C144.354 44.8387 144.249 44.8153 144.173 44.7978C143.567 44.6809 138.838 43.7458 138.803 43.7399C138.372 43.6289 138.115 43.2548 138.144 42.7873C138.144 42.7639 138.144 42.7347 138.704 40.1164L130.804 38.4039C130.705 38.3806 130.413 38.3163 130.232 38.0299C130.162 37.9013 130.081 37.6851 130.168 37.3928L130.436 36.1889C129.025 37.7961 127.259 38.9592 125.195 39.678C123.9 40.1281 122.559 40.356 121.218 40.356C121.119 40.356 121.032 40.356 120.938 40.356C120.233 40.3385 119.51 40.2566 118.793 40.1164C117.154 39.7949 115.668 39.1871 114.379 38.2987C113.085 37.4104 111.995 36.3233 111.155 35.0726C110.31 33.8219 109.715 32.4134 109.382 30.8996C109.05 29.3742 109.062 27.7904 109.4 26.189C109.726 24.6461 110.362 23.2259 111.283 21.9634C112.21 20.701 113.336 19.6373 114.642 18.8016C115.942 17.9717 117.399 17.3814 118.968 17.0599C119.726 16.9021 120.507 16.8203 121.3 16.8203C121.44 16.8203 121.58 16.8203 121.72 16.832C122.408 16.8554 123.113 16.943 123.819 17.0833C125.959 17.5275 127.83 18.4685 129.375 19.877C130.92 21.2855 132.046 22.9628 132.722 24.8565L132.92 23.8103L132.961 23.5648C133.037 23.1499 133.334 22.9044 133.76 22.9044C133.83 22.9044 133.911 22.9102 134.005 22.9278C134.005 22.9278 139.159 23.7402 142.208 24.2136L142.645 22.4193C142.715 22.0979 143.077 21.5894 143.718 21.5894C143.811 21.5894 143.899 21.6011 144.004 21.6245L150.517 23.3077C150.896 23.4129 151.152 23.5999 151.298 23.8571C151.496 24.2136 151.42 24.5935 151.327 24.9149C149.461 30.9873 147.625 37.048 145.52 43.9912C145.252 44.7276 144.756 44.8328 144.482 44.8328M133.375 29.0995C133.387 29.6489 133.311 30.286 133.159 30.9815C133.037 31.5191 132.868 32.0393 132.652 32.5302C135.561 32.9043 137.06 33.1205 139.882 33.5121L140.144 33.553L140.412 32.3549L140.762 30.7126L135.159 29.497L133.387 29.0995H133.381H133.375ZM121.761 25.0201C121.516 25.0201 121.265 25.0435 121.02 25.0902C120.513 25.1896 120.052 25.3766 119.65 25.6396C119.248 25.9026 118.892 26.2358 118.6 26.6273C118.309 27.0131 118.117 27.4514 118.012 27.9248C117.808 28.8716 117.988 29.7892 118.554 30.6425C119.119 31.5016 119.918 32.0393 120.938 32.2439C121.143 32.2848 121.352 32.3082 121.551 32.314H121.644C121.895 32.314 122.145 32.2848 122.39 32.2322C122.857 32.1211 123.306 31.94 123.731 31.6711C124.151 31.4081 124.507 31.075 124.798 30.6892C125.09 30.3035 125.294 29.871 125.393 29.3976C125.498 28.93 125.498 28.4508 125.399 27.9949C125.294 27.5332 125.107 27.0949 124.839 26.6916C124.565 26.2884 124.239 25.9435 123.848 25.6688C123.463 25.3883 123.014 25.1954 122.519 25.0961C122.303 25.0552 122.081 25.0259 121.871 25.0201H121.749H121.761Z" fill="#B8C0DC"/>
<path d="M150.004 23.2961C147.433 22.6298 146.109 22.285 143.497 21.6129C143.019 21.5019 142.797 21.8993 142.768 22.022C142.605 22.7292 142.535 23.0214 142.348 23.828C142.29 24.0676 142.069 24.2312 141.818 24.2195H141.754C138.448 23.6935 136.728 23.4247 133.539 22.9279C133.142 22.8519 133.113 23.0565 133.101 23.1442C133.02 23.6 132.961 23.9098 132.874 24.4358C132.833 24.6637 132.635 24.8332 132.396 24.8566H132.332C132.116 24.8566 131.929 24.7163 131.859 24.5234C131.212 22.7117 130.134 21.1044 128.647 19.7544C127.172 18.4101 125.382 17.5101 123.329 17.0834C122.653 16.9432 121.977 16.8613 121.318 16.838C120.437 16.8087 119.551 16.8789 118.694 17.0542C117.184 17.364 115.785 17.9309 114.543 18.7257C113.295 19.5206 112.211 20.5375 111.324 21.7532C110.444 22.9571 109.843 24.313 109.529 25.78C109.202 27.3113 109.196 28.8191 109.511 30.2686C109.826 31.718 110.397 33.0681 111.202 34.2603C112.012 35.4584 113.05 36.4929 114.292 37.3404C115.528 38.1878 116.945 38.7723 118.508 39.0762C119.196 39.2164 119.889 39.2924 120.572 39.3041C121.948 39.3333 123.318 39.1171 124.641 38.6554C126.624 37.9657 128.314 36.8611 129.661 35.3532C129.766 35.2364 129.918 35.1721 130.069 35.1779C130.145 35.1779 130.221 35.1954 130.285 35.2305C130.495 35.3299 130.606 35.5578 130.559 35.7799C130.443 36.2825 130.378 36.5806 130.285 37.0131C130.204 37.2995 130.425 37.3521 130.53 37.3754C133.614 38.0592 135.259 38.4216 138.442 39.1229C138.716 39.1814 138.885 39.4385 138.827 39.7015C138.611 40.6717 138.273 42.2906 138.273 42.2965C138.261 42.4484 138.302 42.6471 138.541 42.7056C138.541 42.7056 141.859 43.366 143.864 43.7576C144.063 43.7985 144.43 43.8979 144.646 43.3193C146.587 36.8728 148.465 30.6777 150.441 24.2429C150.558 23.8396 150.61 23.4539 150.004 23.2844M125.522 28.9828C125.405 29.5263 125.172 30.0289 124.834 30.4731C124.507 30.9114 124.099 31.2855 123.627 31.5894C123.16 31.8875 122.653 32.0979 122.122 32.2148C121.808 32.2849 121.475 32.3141 121.155 32.3083C120.921 32.3024 120.688 32.2791 120.455 32.2265C119.295 31.9985 118.379 31.3849 117.738 30.403C117.102 29.4328 116.887 28.3808 117.126 27.2879C117.242 26.7443 117.476 26.2359 117.808 25.7859C118.134 25.3534 118.531 24.9735 118.98 24.6754C119.44 24.3715 119.965 24.1611 120.537 24.05C120.863 23.9858 121.19 23.9565 121.522 23.9682C121.761 23.9741 122.006 24.0091 122.251 24.0559C122.816 24.1728 123.329 24.3949 123.778 24.7163C124.21 25.0261 124.589 25.4177 124.892 25.8735C125.201 26.3235 125.411 26.8262 125.522 27.358C125.644 27.8899 125.638 28.4392 125.522 28.9828ZM140.891 30.2978C140.646 31.4375 140.523 32.0044 140.279 33.1499C140.232 33.3953 139.999 33.559 139.742 33.5531H139.684C136.687 33.1207 135.189 32.9103 132.186 32.4836C132.028 32.4602 131.889 32.3726 131.813 32.2381C131.737 32.1037 131.725 31.9401 131.789 31.7998C131.988 31.3381 132.151 30.853 132.268 30.3504C132.413 29.6958 132.489 29.0938 132.477 28.5678C132.477 28.41 132.547 28.2639 132.676 28.1645C132.775 28.0886 132.897 28.0477 133.025 28.0535L133.125 28.071C136.081 28.7315 137.556 29.0588 140.506 29.7192C140.78 29.7835 140.949 30.0348 140.897 30.2978" fill="white"/>
</svg>
