<svg width="33" height="44" viewBox="0 0 33 44" fill="none" xmlns="http://www.w3.org/2000/svg">
<path d="M3.68 36H6.544V26.464H9.776V24.08H0.464V26.464H3.68V36ZM15.7218 36.224C18.9698 36.224 21.1778 33.888 21.1778 29.984C21.1778 26.096 18.9698 23.872 15.7218 23.872C12.4738 23.872 10.2658 26.08 10.2658 29.984C10.2658 33.888 12.4738 36.224 15.7218 36.224ZM15.7218 33.76C14.1538 33.76 13.1938 32.288 13.1938 29.984C13.1938 27.68 14.1538 26.32 15.7218 26.32C17.2898 26.32 18.2658 27.68 18.2658 29.984C18.2658 32.288 17.2898 33.76 15.7218 33.76ZM23.2279 36H26.0919V32.048H27.4839C30.0119 32.048 32.1879 30.8 32.1879 27.968C32.1879 25.024 30.0279 24.08 27.4199 24.08H23.2279V36ZM26.0919 29.792V26.352H27.2599C28.6359 26.352 29.4039 26.768 29.4039 27.968C29.4039 29.136 28.7319 29.792 27.3399 29.792H26.0919Z" fill="#D6B3FF"/>
<path d="M9.20008 11.3541L15.657 3.10638C16.3401 2.23407 17.6601 2.23407 18.3432 3.10638L24.8001 11.3587C25.677 12.4802 24.8785 14.1187 23.457 14.1187H10.5432C9.12162 14.1187 8.32315 12.4802 9.20008 11.3587V11.3541Z" fill="#D6B2FF"/>
</svg>
